<svg width="50" height="50" viewBox="0 0 50 50" fill="none" xmlns="http://www.w3.org/2000/svg">
<path d="M18.75 8.33334H10.4167C9.26608 8.33334 8.33334 9.26608 8.33334 10.4167V20.8333C8.33334 21.9839 9.26608 22.9167 10.4167 22.9167H18.75C19.9006 22.9167 20.8333 21.9839 20.8333 20.8333V10.4167C20.8333 9.26608 19.9006 8.33334 18.75 8.33334Z" stroke="white" stroke-width="2" stroke-linejoin="round"/>
<path d="M18.75 31.25H10.4167C9.26608 31.25 8.33334 32.1827 8.33334 33.3333V39.5833C8.33334 40.7339 9.26608 41.6667 10.4167 41.6667H18.75C19.9006 41.6667 20.8333 40.7339 20.8333 39.5833V33.3333C20.8333 32.1827 19.9006 31.25 18.75 31.25Z" stroke="white" stroke-width="2" stroke-linejoin="round"/>
<path d="M39.5833 8.33334H31.25C30.0994 8.33334 29.1667 9.26608 29.1667 10.4167V16.6667C29.1667 17.8173 30.0994 18.75 31.25 18.75H39.5833C40.7339 18.75 41.6667 17.8173 41.6667 16.6667V10.4167C41.6667 9.26608 40.7339 8.33334 39.5833 8.33334Z" stroke="white" stroke-width="2" stroke-linejoin="round"/>
<path d="M39.5833 27.0833H31.25C30.0994 27.0833 29.1667 28.0161 29.1667 29.1667V39.5833C29.1667 40.7339 30.0994 41.6667 31.25 41.6667H39.5833C40.7339 41.6667 41.6667 40.7339 41.6667 39.5833V29.1667C41.6667 28.0161 40.7339 27.0833 39.5833 27.0833Z" stroke="white" stroke-width="2" stroke-linejoin="round"/>
</svg>
