<svg width="52" height="50" viewBox="0 0 52 50" fill="none" xmlns="http://www.w3.org/2000/svg">
<path d="M26 37.5C26 38.0523 26.4477 38.5 27 38.5C27.5523 38.5 28 38.0523 28 37.5H26ZM28 25C28 24.4477 27.5523 24 27 24C26.4477 24 26 24.4477 26 25H28ZM28 37.5V25H26V37.5H28Z" fill="white"/>
<path d="M20.75 30.25C20.1977 30.25 19.75 30.6977 19.75 31.25C19.75 31.8023 20.1977 32.25 20.75 32.25L20.75 30.25ZM33.25 32.25C33.8023 32.25 34.25 31.8023 34.25 31.25C34.25 30.6977 33.8023 30.25 33.25 30.25L33.25 32.25ZM20.75 32.25L33.25 32.25L33.25 30.25L20.75 30.25L20.75 32.25Z" fill="white"/>
<path d="M39.5 43.75H14.5C13.3494 43.75 12.4167 42.8173 12.4167 41.6667L12.4167 8.33333C12.4167 7.18274 13.3494 6.25 14.5 6.25L30.2564 6.25C30.8368 6.25 31.3908 6.49207 31.7851 6.9179L41.0287 16.901C41.3852 17.2861 41.5833 17.7916 41.5833 18.3164L41.5833 41.6667C41.5833 42.8173 40.6506 43.75 39.5 43.75Z" stroke="white" stroke-width="2" stroke-linecap="round" stroke-linejoin="round"/>
<path d="M41.5833 18.75L31.1667 18.75C30.0161 18.75 29.0833 17.8173 29.0833 16.6667L29.0833 6.25" stroke="white" stroke-width="2" stroke-linecap="round" stroke-linejoin="round"/>
</svg>
