<svg width="50" height="50" viewBox="0 0 50 50" fill="none" xmlns="http://www.w3.org/2000/svg">
<path d="M18.1398 23.5269C17.3262 22.7133 16.0071 22.7133 15.1935 23.5269C14.3799 24.3404 14.3799 25.6596 15.1935 26.4731L18.1398 23.5269ZM22.9167 31.25L21.4436 32.7231C21.8575 33.1371 22.4263 33.3577 23.0111 33.3312C23.5958 33.3046 24.1425 33.0333 24.5171 32.5837L22.9167 31.25ZM34.9338 20.0837C35.6704 19.1998 35.5511 17.8861 34.6671 17.1495C33.7831 16.4129 32.4694 16.5324 31.7329 17.4163L34.9338 20.0837ZM15.1935 26.4731L21.4436 32.7231L24.3898 29.7769L18.1398 23.5269L15.1935 26.4731ZM24.5171 32.5837L34.9338 20.0837L31.7329 17.4163L21.3163 29.9162L24.5171 32.5837Z" fill="white"/>
<path d="M39.5833 8.33333H10.4167C9.26609 8.33333 8.33334 9.26608 8.33334 10.4167V39.5833C8.33334 40.7339 9.26609 41.6667 10.4167 41.6667H39.5833C40.734 41.6667 41.6667 40.7339 41.6667 39.5833V10.4167C41.6667 9.26608 40.734 8.33333 39.5833 8.33333Z" stroke="white" stroke-width="2" stroke-linecap="round" stroke-linejoin="round"/>
</svg>
