<svg width="50" height="50" viewBox="0 0 50 50" fill="none" xmlns="http://www.w3.org/2000/svg">
<path d="M35.4167 33.8075C40.2717 34.9515 43.75 38.0383 43.75 41.6667" stroke="white" stroke-width="2" stroke-linecap="round" stroke-linejoin="round"/>
<path d="M6.25 41.6667C6.25 37.0644 11.8464 33.3333 18.75 33.3333C25.6535 33.3333 31.25 37.0644 31.25 41.6667" stroke="white" stroke-width="2" stroke-linecap="round" stroke-linejoin="round"/>
<path d="M31.25 27.0833C35.8523 27.0833 39.5833 23.3523 39.5833 18.75C39.5833 14.1476 35.8523 10.4167 31.25 10.4167" stroke="white" stroke-width="2" stroke-linecap="round" stroke-linejoin="round"/>
<path d="M18.75 27.0833C23.3523 27.0833 27.0833 23.3523 27.0833 18.75C27.0833 14.1476 23.3523 10.4167 18.75 10.4167C14.1476 10.4167 10.4167 14.1476 10.4167 18.75C10.4167 23.3523 14.1476 27.0833 18.75 27.0833Z" stroke="white" stroke-width="2" stroke-linecap="round" stroke-linejoin="round"/>
</svg>
