<svg width="500" height="500" viewBox="0 0 500 500" fill="none" xmlns="http://www.w3.org/2000/svg">
<rect width="500" height="500" rx="100" fill="black"/>
<path d="M368.923 178.858L257.406 392.835L122.172 178.307L368.923 178.858Z" fill="white"/>
<path d="M251.674 314.06L260.851 318.618L334.337 178.766L322.772 178.752L251.674 314.06Z" fill="black"/>
<path d="M254.481 319.083L208.938 245.4L217.772 240.24L263.315 313.924L254.481 319.083Z" fill="black"/>
<path d="M138.36 204L247.728 204.481V214.5L145 214.5L138.36 204Z" fill="black"/>
<path d="M252.971 386V315.832H262.34L261 386L257.5 393L252.971 386Z" fill="black"/>
<path d="M266.366 246.943L288.339 245.547L278.12 265.045L266.366 246.943Z" fill="black"/>
</svg>
