<svg width="51" height="54" viewBox="0 0 51 54" fill="none" xmlns="http://www.w3.org/2000/svg">
<path d="M26 12.3333L26.5547 11.5013C26.2188 11.2773 25.7812 11.2773 25.4453 11.5013L26 12.3333ZM44.75 24.8333L45.3047 25.6654C45.5829 25.4799 45.75 25.1677 45.75 24.8333C45.75 24.499 45.5829 24.1867 45.3047 24.0013L44.75 24.8333ZM26 37.3333L25.4453 38.1654C25.7812 38.3893 26.2188 38.3893 26.5547 38.1654L26 37.3333ZM7.25 24.8333L6.6953 24.0013C6.4171 24.1867 6.25 24.499 6.25 24.8333C6.25 25.1677 6.4171 25.4799 6.6953 25.6654L7.25 24.8333ZM25.4453 13.1654L44.1953 25.6654L45.3047 24.0013L26.5547 11.5013L25.4453 13.1654ZM44.1953 24.0013L25.4453 36.5013L26.5547 38.1654L45.3047 25.6654L44.1953 24.0013ZM26.5547 36.5013L7.8047 24.0013L6.6953 25.6654L25.4453 38.1654L26.5547 36.5013ZM7.8047 25.6654L26.5547 13.1654L25.4453 11.5013L6.6953 24.0013L7.8047 25.6654Z" fill="white"/>
<path d="M45.3047 33.9987C45.7642 33.6924 45.8884 33.0715 45.5821 32.612C45.2757 32.1524 44.6548 32.0283 44.1953 32.3346L45.3047 33.9987ZM26 45.6667L25.4453 46.4987C25.7812 46.7227 26.2188 46.7227 26.5547 46.4987L26 45.6667ZM7.8047 32.3346C7.34517 32.0283 6.7243 32.1524 6.41795 32.612C6.1116 33.0715 6.23577 33.6924 6.6953 33.9987L7.8047 32.3346ZM44.1953 32.3346L25.4453 44.8346L26.5547 46.4987L45.3047 33.9987L44.1953 32.3346ZM26.5547 44.8346L7.8047 32.3346L6.6953 33.9987L25.4453 46.4987L26.5547 44.8346Z" fill="white"/>
</svg>
