<svg width="50" height="52" viewBox="0 0 50 52" fill="none" xmlns="http://www.w3.org/2000/svg">
<path d="M13.433 18.6863C14.0879 12.7923 19.0698 8.33334 25 8.33334C30.9302 8.33334 35.9121 12.7923 36.5671 18.6863L37.0917 23.4075C37.0983 23.4677 37.1017 23.4979 37.105 23.5277C37.3738 25.8685 38.1356 28.126 39.3408 30.151C39.356 30.1769 39.3717 30.2027 39.4027 30.2546L40.6071 32.2617C41.6998 34.0831 42.2463 34.9937 42.1283 35.7415C42.0498 36.2387 41.7938 36.691 41.4077 37.0142C40.8273 37.5 39.7652 37.5 37.6413 37.5H12.3588C10.2347 37.5 9.17273 37.5 8.59237 37.0142C8.20619 36.691 7.95019 36.2387 7.87169 35.7415C7.75373 34.9937 8.30014 34.0831 9.39296 32.2617L10.5972 30.2546C10.6284 30.2027 10.6439 30.1769 10.6592 30.151C11.8643 28.126 12.6263 25.8685 12.895 23.5277C12.8984 23.4979 12.9017 23.4677 12.9084 23.4075L13.433 18.6863Z" stroke="white" stroke-width="2"/>
<path d="M18.963 38.3456C19.3191 39.896 20.1037 41.266 21.1952 42.2431C22.2867 43.2204 23.6242 43.75 25 43.75C26.3758 43.75 27.7133 43.2204 28.8048 42.2431C29.8962 41.266 30.681 39.896 31.0371 38.3456" stroke="white" stroke-linecap="round"/>
</svg>
