<svg width="50" height="50" viewBox="0 0 50 50" fill="none" xmlns="http://www.w3.org/2000/svg">
<path d="M29.4502 7.003L30.4869 6.89936L29.4502 7.003ZM29.1329 5.29502L28.2071 5.7725V5.77252L29.1329 5.29502ZM30.0648 10.0374L30.8929 9.40556L30.0648 10.0374ZM31.999 10.8385L31.86 9.80613L31.999 10.8385ZM34.579 9.12736L35.2385 9.93356L34.579 9.12736ZM36.011 8.14413L36.3281 9.1364L36.011 8.14413ZM37.4733 8.21706L37.8875 7.26127L37.4733 8.21706ZM38.8006 9.33792L38.064 10.0745L38.8006 9.33792ZM40.6621 11.1993L41.3985 10.4627L40.6621 11.1993ZM41.7829 12.5266L42.7388 12.1124L41.7829 12.5266ZM41.8558 13.9888L42.8481 14.3058V14.3058L41.8558 13.9888ZM40.8725 15.421L40.0662 14.7614L40.8725 15.421ZM39.1615 18.0012L38.129 17.8623L39.1615 18.0012ZM39.9625 19.9353L39.3306 20.7634L39.9625 19.9353ZM42.9969 20.5497L43.1006 19.5132L42.9969 20.5497ZM44.705 20.8671L45.1825 19.9414L44.705 20.8671ZM45.6873 21.9527L46.656 21.5696L45.6873 21.9527ZM45.6875 28.0471L44.7188 27.6642L45.6875 28.0471ZM44.7048 29.1329L45.1823 30.0588L44.7048 29.1329ZM42.9971 29.4502L42.8935 28.4138L42.8596 28.4171L42.8258 28.4227L42.9971 29.4502ZM42.9971 29.4502L43.1008 30.4869L43.1348 30.4833L43.1683 30.4777L42.9971 29.4502ZM39.9635 30.0644L39.3321 29.236L39.9635 30.0644ZM39.1623 31.9992L38.1298 32.1383L39.1623 31.9992ZM40.8729 34.5783L40.0667 35.2379L40.8729 34.5783ZM41.8558 36.01L40.8635 36.3271L41.8558 36.01ZM41.7829 37.4727L40.8271 37.0585L41.7829 37.4727ZM40.6623 38.7996L41.399 39.536L40.6623 38.7996ZM38.8006 40.6613L38.0642 39.9246L38.8006 40.6613ZM37.4735 41.7821L37.8877 42.7377L37.4735 41.7821ZM36.0113 41.855L35.6942 42.8473L36.0113 41.855ZM34.579 40.8717L35.2388 40.0654L35.2298 40.0583L34.579 40.8717ZM34.579 40.8717L33.9194 41.6779L33.9283 41.685L34.579 40.8717ZM31.999 39.1606L32.1379 38.1281L31.999 39.1606ZM30.0648 39.9617L30.8929 40.5935L30.0648 39.9617ZM29.4504 42.9965L28.4138 42.8929L29.4504 42.9965ZM29.1327 44.7052L28.2071 44.2275L29.1327 44.7052ZM28.0475 45.6873L27.6644 44.7188L28.0475 45.6873ZM21.9527 45.6873L22.3356 44.7188L21.9527 45.6873ZM20.8671 44.705L21.7929 44.2275L20.8671 44.705ZM20.5497 42.9969L19.5132 43.1006L20.5497 42.9969ZM19.9353 39.9625L19.1071 40.5944L19.9353 39.9625ZM18.0012 39.1615L17.8623 38.129L18.0012 39.1615ZM15.421 40.8727L14.7614 40.0665L14.7449 40.08L14.7289 40.0942L15.421 40.8727ZM15.421 40.8727L16.0806 41.6787L16.0971 41.6654L16.113 41.6512L15.421 40.8727ZM13.9887 41.8558L14.3057 42.8481L13.9887 41.8558ZM12.5265 41.7829L12.1124 42.7388L12.5265 41.7829ZM11.1992 40.6621L11.9358 39.9254L11.1992 40.6621ZM9.33786 38.8006L8.60127 39.5373L9.33786 38.8006ZM8.21696 37.4735L9.17275 37.0594L8.21696 37.4735ZM8.14402 36.0113L9.13629 36.3281L8.14402 36.0113ZM9.12729 34.579L9.9335 35.2385L9.12729 34.579ZM10.8385 31.9988L11.8709 32.1377L10.8385 31.9988ZM10.0373 30.0648L10.6691 29.2365L10.0373 30.0648ZM7.00298 29.4502L6.89933 30.4869L7.00298 29.4502ZM5.29502 29.1329L5.77252 28.2071L5.29502 29.1329ZM4.31261 28.0473L3.3439 28.4302L4.31261 28.0473ZM4.31267 21.9525L3.34402 21.5694L4.31267 21.9525ZM5.29483 20.8673L4.81727 19.9415H4.81725L5.29483 20.8673ZM7.00323 20.5497V19.508H6.95127L6.89958 19.5132L7.00323 20.5497ZM7.00325 20.5497V21.5913H7.05521L7.1069 21.5863L7.00325 20.5497ZM10.0384 19.935L9.40646 19.1069H9.40644L10.0384 19.935ZM10.8393 18.0014L11.8717 17.8627L10.8393 18.0014ZM9.12767 15.4205L9.93388 14.7608L9.12767 15.4205ZM8.14404 13.9876L9.13636 13.6708H9.13633L8.14404 13.9876ZM8.21694 12.5259L7.26108 12.1119L8.21694 12.5259ZM9.33819 11.1981L10.0748 11.9347L9.33819 11.1981ZM11.1993 9.33702L10.4627 8.60046L11.1993 9.33702ZM12.5266 8.21611L12.1125 7.26029L12.5266 8.21611ZM13.9888 8.14317L14.3058 7.1509L13.9888 8.14317ZM15.4213 9.12659L16.0809 8.32038L15.4213 9.12659ZM18.0009 10.8376L18.14 9.80529L18.0009 10.8376ZM19.9356 10.0363L19.1073 9.40463L19.9356 10.0363ZM20.5497 7.00273L21.5863 7.10638L20.5497 7.00273ZM20.8671 5.29521L19.9412 4.81781V4.81783L20.8671 5.29521ZM21.9529 4.31252L22.3358 5.28125L21.9529 4.31252ZM28.0473 4.31261L28.4302 3.3439L28.0473 4.31261ZM30.4869 6.89936C30.4429 6.46138 30.4056 6.08219 30.3531 5.77C30.299 5.44754 30.219 5.12846 30.0585 4.81754L28.2071 5.77252C28.2285 5.81433 28.2621 5.8975 28.2985 6.11498C28.3369 6.34269 28.3673 6.64115 28.4138 7.10665L30.4869 6.89936ZM30.8929 9.40556C30.8694 9.37465 30.7929 9.24733 30.7127 8.80106C30.6342 8.36473 30.574 7.7719 30.4869 6.89936L28.4138 7.10665C28.4975 7.94423 28.5658 8.634 28.6623 9.17002C28.7569 9.69611 28.9023 10.2309 29.2365 10.6691L30.8929 9.40556ZM31.86 9.80613C31.4892 9.85602 31.1198 9.7031 30.8929 9.40556L29.2365 10.6691C29.9175 11.5618 31.025 12.0206 32.1377 11.8709L31.86 9.80613ZM33.9194 8.32115C33.2406 8.87644 32.779 9.25317 32.415 9.50617C32.0425 9.76494 31.8985 9.80094 31.86 9.80613L32.1377 11.8709C32.684 11.7974 33.165 11.522 33.6038 11.2169C34.051 10.9061 34.5871 10.4666 35.2385 9.93356L33.9194 8.32115ZM35.6942 7.15188C35.3608 7.25833 35.0785 7.42733 34.8123 7.61706C34.5544 7.80075 34.26 8.04244 33.9194 8.32115L35.2385 9.93356C35.6006 9.63731 35.8331 9.44777 36.0212 9.31379C36.2008 9.18583 36.2833 9.15071 36.3281 9.1364L35.6942 7.15188ZM37.8875 7.26127C37.1938 6.96063 36.4144 6.92175 35.6942 7.15188L36.3281 9.1364C36.5681 9.05969 36.8279 9.07265 37.0592 9.17285L37.8875 7.26127ZM39.5371 8.60136C39.226 8.29011 38.9569 8.02031 38.7185 7.8119C38.4725 7.59663 38.2085 7.40036 37.8875 7.26127L37.0592 9.17285C37.1025 9.19156 37.181 9.23473 37.3469 9.37992C37.5208 9.53196 37.7333 9.74369 38.064 10.0745L39.5371 8.60136ZM41.3985 10.4627L39.5371 8.60136L38.064 10.0745L39.9254 11.9359L41.3985 10.4627ZM42.7388 12.1124C42.5996 11.7914 42.4033 11.5274 42.1881 11.2813C41.9796 11.043 41.7098 10.774 41.3985 10.4627L39.9254 11.9359C40.2562 12.2667 40.4679 12.4792 40.62 12.653C40.7652 12.819 40.8083 12.8975 40.8271 12.9407L42.7388 12.1124ZM42.8481 14.3058C43.0781 13.5855 43.0394 12.8063 42.7388 12.1124L40.8271 12.9407C40.9273 13.172 40.9402 13.4318 40.8635 13.6719L42.8481 14.3058ZM41.6787 16.0807C41.9575 15.74 42.1992 15.4455 42.3829 15.1876C42.5725 14.9213 42.7417 14.6391 42.8481 14.3058L40.8635 13.6719C40.8492 13.7167 40.8142 13.7991 40.686 13.9788C40.5521 14.1668 40.3625 14.3993 40.0662 14.7614L41.6787 16.0807ZM40.1937 18.14C40.199 18.1015 40.235 17.9575 40.4937 17.5851C40.7467 17.221 41.1235 16.7594 41.6787 16.0807L40.0662 14.7614C39.5333 15.4129 39.0938 15.9489 38.7829 16.3961C38.4779 16.8351 38.2025 17.316 38.129 17.8623L40.1937 18.14ZM40.5944 19.1071C40.2967 18.8801 40.144 18.5109 40.1937 18.14L38.129 17.8623C37.9794 18.975 38.4381 20.0825 39.3306 20.7634L40.5944 19.1071ZM43.1006 19.5132C42.2279 19.4259 41.6352 19.3659 41.1987 19.2874C40.7525 19.207 40.6252 19.1306 40.5944 19.1071L39.3306 20.7634C39.769 21.0977 40.3037 21.2431 40.8298 21.3377C41.3658 21.4342 42.0556 21.5025 42.8933 21.5863L43.1006 19.5132ZM45.1825 19.9414C44.8717 19.781 44.5525 19.7009 44.23 19.6468C43.9177 19.5944 43.5385 19.557 43.1006 19.5132L42.8933 21.5863C43.3587 21.6327 43.6573 21.6631 43.885 21.7015C44.1025 21.7379 44.1856 21.7715 44.2275 21.7929L45.1825 19.9414ZM46.656 21.5696C46.3781 20.8665 45.8546 20.288 45.1825 19.9414L44.2275 21.7929C44.4515 21.9085 44.626 22.1013 44.7188 22.3356L46.656 21.5696ZM46.875 23.6838C46.875 23.2438 46.8756 22.8627 46.8544 22.5467C46.8327 22.2204 46.7848 21.895 46.656 21.5696L44.7188 22.3356C44.736 22.3794 44.761 22.4656 44.7758 22.6856C44.791 22.916 44.7917 23.216 44.7917 23.6838H46.875ZM46.875 26.3165V23.6838H44.7917V26.3165H46.875ZM46.6562 28.43C46.7848 28.1048 46.8327 27.7794 46.8544 27.4531C46.8756 27.1375 46.875 26.7565 46.875 26.3165H44.7917C44.7917 26.7842 44.791 27.084 44.7758 27.3144C44.761 27.5344 44.736 27.6204 44.7188 27.6642L46.6562 28.43ZM45.1823 30.0588C45.8544 29.7121 46.3781 29.1333 46.6562 28.43L44.7188 27.6642C44.626 27.8988 44.4515 28.0915 44.2275 28.2071L45.1823 30.0588ZM43.1008 30.4869C43.5387 30.4429 43.9177 30.4056 44.23 30.3531C44.5523 30.2992 44.8715 30.219 45.1823 30.0588L44.2275 28.2071C44.1856 28.2288 44.1025 28.2621 43.885 28.2985C43.6573 28.3369 43.359 28.3673 42.8935 28.4138L43.1008 30.4869ZM43.1683 30.4777L42.8258 28.4227L43.1683 30.4777ZM40.5952 30.8927C40.6263 30.8692 40.7535 30.7927 41.1996 30.7125C41.6358 30.634 42.2285 30.574 43.1008 30.4869L42.8935 28.4138C42.056 28.4975 41.3667 28.5656 40.8306 28.6621C40.3048 28.7567 39.7702 28.9019 39.3321 29.236L40.5952 30.8927ZM40.1946 31.8602C40.1446 31.4892 40.2975 31.1198 40.5952 30.8927L39.3321 29.236C38.439 29.9171 37.98 31.0252 38.1298 32.1383L40.1946 31.8602ZM41.6792 33.9188C41.124 33.2402 40.7475 32.7788 40.4944 32.4148C40.2358 32.0427 40.1998 31.8985 40.1946 31.8602L38.1298 32.1383C38.2035 32.6844 38.4787 33.165 38.7837 33.6038C39.0944 34.0508 39.5337 34.5867 40.0667 35.2379L41.6792 33.9188ZM42.8481 35.6929C42.7415 35.3598 42.5725 35.0775 42.3829 34.8115C42.1994 34.5537 41.9577 34.2592 41.6792 33.9188L40.0667 35.2379C40.3627 35.5998 40.5523 35.8323 40.6862 36.0202C40.8142 36.1998 40.8492 36.2823 40.8635 36.3271L42.8481 35.6929ZM42.7385 37.8871C43.0394 37.1929 43.0783 36.4133 42.8481 35.6929L40.8635 36.3271C40.9404 36.5673 40.9273 36.8271 40.8271 37.0585L42.7385 37.8871ZM41.399 39.536C41.71 39.225 41.9798 38.956 42.1881 38.7179C42.4033 38.4719 42.5996 38.2079 42.7385 37.8871L40.8271 37.0585C40.8083 37.1017 40.7652 37.1802 40.62 37.346C40.4681 37.5198 40.2565 37.7323 39.9258 38.0629L41.399 39.536ZM39.5373 41.3977L41.399 39.536L39.9258 38.0629L38.0642 39.9246L39.5373 41.3977ZM37.8877 42.7377C38.2085 42.5987 38.4727 42.4025 38.7187 42.1871C38.9571 41.9787 39.226 41.709 39.5373 41.3977L38.0642 39.9246C37.7333 40.2554 37.5208 40.4671 37.3471 40.6192C37.181 40.7644 37.1025 40.8075 37.0594 40.8262L37.8877 42.7377ZM35.6942 42.8473C36.4144 43.0773 37.1937 43.0385 37.8877 42.7377L37.0594 40.8262C36.8281 40.9265 36.5683 40.9394 36.3281 40.8627L35.6942 42.8473ZM33.9194 41.6779C34.26 41.9567 34.5546 42.1983 34.8123 42.3821C35.0788 42.5717 35.3608 42.7408 35.6942 42.8473L36.3281 40.8627C36.2833 40.8483 36.2008 40.8133 36.0212 40.6852C35.8331 40.5513 35.6006 40.3617 35.2385 40.0654L33.9194 41.6779ZM33.9283 41.685V41.6852L35.2298 40.0583L33.9283 41.685ZM31.86 40.1929C31.8985 40.1981 32.0427 40.2342 32.415 40.4929C32.779 40.7458 33.2406 41.1227 33.9194 41.6779L35.2385 40.0654C34.5871 39.5325 34.0513 39.0929 33.604 38.7821C33.165 38.4771 32.6842 38.2017 32.1379 38.1281L31.86 40.1929ZM30.8929 40.5935C31.12 40.296 31.4892 40.1431 31.86 40.1929L32.1379 38.1281C31.025 37.9785 29.9175 38.4373 29.2367 39.33L30.8929 40.5935ZM30.4869 43.1002C30.5742 42.2275 30.6342 41.6346 30.7127 41.1981C30.7931 40.7517 30.8694 40.6244 30.8929 40.5935L29.2367 39.33C28.9023 39.7681 28.7569 40.3031 28.6623 40.8292C28.5658 41.3652 28.4977 42.0552 28.4138 42.8929L30.4869 43.1002ZM30.0585 45.1827C30.219 44.8719 30.299 44.5525 30.3531 44.23C30.4056 43.9177 30.4431 43.5383 30.4869 43.1002L28.4138 42.8929C28.3673 43.3585 28.3369 43.6571 28.2985 43.885C28.2621 44.1025 28.2285 44.1858 28.2071 44.2275L30.0585 45.1827ZM28.4306 46.656C29.1335 46.3779 29.7119 45.8546 30.0585 45.1827L28.2071 44.2275C28.0915 44.4515 27.8988 44.626 27.6644 44.7188L28.4306 46.656ZM26.3158 46.875C26.7563 46.875 27.1373 46.8756 27.4533 46.8544C27.7796 46.8327 28.1052 46.7846 28.4306 46.656L27.6644 44.7188C27.6206 44.736 27.5346 44.761 27.3144 44.7758C27.084 44.791 26.784 44.7917 26.3158 44.7917V46.875ZM23.6838 46.875H26.3158V44.7917H23.6838V46.875ZM21.5696 46.656C21.895 46.7848 22.2204 46.8327 22.5467 46.8544C22.8627 46.8756 23.2438 46.875 23.6838 46.875V44.7917C23.216 44.7917 22.916 44.791 22.6856 44.7758C22.4656 44.761 22.3794 44.736 22.3356 44.7188L21.5696 46.656ZM19.9414 45.1825C20.288 45.8546 20.8665 46.3781 21.5696 46.656L22.3356 44.7188C22.1013 44.626 21.9085 44.4515 21.7929 44.2275L19.9414 45.1825ZM19.5132 43.1006C19.557 43.5385 19.5944 43.9177 19.6468 44.23C19.7009 44.5525 19.781 44.8717 19.9414 45.1825L21.7929 44.2275C21.7715 44.1856 21.7379 44.1025 21.7015 43.885C21.6631 43.6573 21.6327 43.3587 21.5863 42.8933L19.5132 43.1006ZM19.1071 40.5944C19.1306 40.6252 19.207 40.7525 19.2874 41.1987C19.3659 41.6352 19.4259 42.2281 19.5132 43.1006L21.5863 42.8933C21.5025 42.0556 21.4342 41.3658 21.3377 40.8298C21.2431 40.3037 21.0977 39.769 20.7634 39.3306L19.1071 40.5944ZM18.14 40.1937C18.5109 40.144 18.8801 40.2969 19.1071 40.5944L20.7634 39.3306C20.0825 38.4381 18.975 37.9794 17.8623 38.129L18.14 40.1937ZM16.0806 41.6787C16.7593 41.1235 17.221 40.7467 17.5851 40.4937C17.9575 40.235 18.1015 40.199 18.14 40.1937L17.8623 38.129C17.316 38.2025 16.8351 38.4779 16.3961 38.7829C15.9489 39.0938 15.4129 39.5333 14.7614 40.0665L16.0806 41.6787ZM16.113 41.6512H16.113L14.7289 40.0942H14.7289L16.113 41.6512ZM14.3057 42.8481C14.639 42.7417 14.9212 42.5727 15.1875 42.3829C15.4454 42.1994 15.7399 41.9575 16.0806 41.6787L14.7613 40.0665C14.3993 40.3627 14.1667 40.5523 13.9787 40.6862C13.799 40.8142 13.7166 40.8494 13.6718 40.8635L14.3057 42.8481ZM12.1124 42.7388C12.8062 43.0394 13.5854 43.0783 14.3057 42.8481L13.6718 40.8635C13.4316 40.9404 13.1719 40.9273 12.9406 40.8271L12.1124 42.7388ZM10.4626 41.3985C10.7739 41.7098 11.0429 41.9798 11.2812 42.1881C11.5273 42.4033 11.7914 42.5998 12.1124 42.7388L12.9406 40.8271C12.8975 40.8085 12.8189 40.7652 12.6529 40.6202C12.4791 40.4681 12.2666 40.2562 11.9358 39.9254L10.4626 41.3985ZM8.60127 39.5373L10.4626 41.3985L11.9358 39.9254L10.0744 38.0642L8.60127 39.5373ZM7.26115 37.8875C7.40025 38.2085 7.5965 38.4727 7.81179 38.7187C8.02023 38.9571 8.29004 39.226 8.60127 39.5373L10.0744 38.0642C9.74361 37.7333 9.53186 37.5208 9.37983 37.3471C9.23463 37.181 9.19146 37.1025 9.17275 37.0594L7.26115 37.8875ZM7.15175 35.6942C6.92167 36.4146 6.96054 37.1938 7.26115 37.8875L9.17275 37.0594C9.07254 36.8281 9.05961 36.5683 9.13629 36.3281L7.15175 35.6942ZM8.32111 33.9194C8.04236 34.26 7.80067 34.5546 7.61696 34.8123C7.42723 35.0788 7.25823 35.361 7.15175 35.6942L9.13629 36.3281C9.15061 36.2833 9.18573 36.2008 9.31371 36.0212C9.44769 35.8331 9.63725 35.6006 9.9335 35.2385L8.32111 33.9194ZM9.80613 31.86C9.80094 31.8985 9.76492 32.0425 9.50615 32.415C9.25313 32.779 8.8764 33.2406 8.32111 33.9194L9.9335 35.2385C10.4665 34.5871 10.9061 34.051 11.2169 33.6038C11.522 33.165 11.7974 32.684 11.8709 32.1377L9.80613 31.86ZM9.40554 30.8929C9.7031 31.1198 9.856 31.489 9.80613 31.86L11.8709 32.1377C12.0205 31.025 11.5618 29.9175 10.6691 29.2365L9.40554 30.8929ZM6.89933 30.4869C7.7719 30.574 8.36473 30.6342 8.80104 30.7127C9.24731 30.7929 9.37465 30.8694 9.40554 30.8929L10.6691 29.2365C10.2309 28.9023 9.69611 28.7569 9.17002 28.6623C8.634 28.5658 7.94421 28.4975 7.10663 28.4138L6.89933 30.4869ZM4.81754 30.0585C5.12846 30.219 5.44754 30.299 5.77 30.3531C6.08219 30.4056 6.46136 30.4429 6.89933 30.4869L7.10663 28.4138C6.64113 28.3673 6.34269 28.3369 6.11498 28.2985C5.8975 28.2621 5.81433 28.2285 5.77252 28.2071L4.81754 30.0585ZM3.3439 28.4302C3.62192 29.1335 4.1455 29.7121 4.81754 30.0585L5.77252 28.2071C5.5485 28.0915 5.37398 27.8988 5.28129 27.6644L3.3439 28.4302ZM3.125 26.3162C3.125 26.7565 3.12446 27.1373 3.14556 27.4533C3.16736 27.7794 3.21527 28.105 3.3439 28.4302L5.28129 27.6644C5.264 27.6204 5.23896 27.5344 5.22425 27.3144C5.20888 27.084 5.20833 26.784 5.20833 26.3162H3.125ZM3.125 23.684V26.3162H5.20833V23.684H3.125ZM3.34402 21.5694C3.21531 21.8948 3.16738 22.2204 3.14556 22.5467C3.12446 22.8627 3.125 23.2438 3.125 23.684H5.20833C5.20833 23.216 5.20888 22.916 5.22427 22.6856C5.23898 22.4654 5.26402 22.3794 5.28133 22.3356L3.34402 21.5694ZM4.81725 19.9415C4.14544 20.2881 3.62202 20.8665 3.34402 21.5694L5.28133 22.3356C5.374 22.1013 5.54848 21.9085 5.77242 21.7929L4.81725 19.9415ZM6.89958 19.5132C6.4615 19.557 6.08223 19.5944 5.76994 19.6468C5.44742 19.701 5.12825 19.7811 4.81727 19.9415L5.77242 21.7929C5.81425 21.7715 5.89742 21.7379 6.11496 21.7015C6.34275 21.6631 6.64125 21.6327 7.10688 21.5863L6.89958 19.5132ZM7.00323 19.508V21.5913V19.508ZM7.00325 19.508H7.00323V21.5913H7.00325V19.508ZM9.40644 19.1069C9.37552 19.1305 9.24821 19.2069 8.80181 19.2873C8.36538 19.3658 7.77238 19.4259 6.89961 19.5132L7.1069 21.5863C7.94471 21.5023 8.63467 21.4342 9.17083 21.3377C9.69704 21.2429 10.232 21.0975 10.6703 20.7631L9.40644 19.1069ZM9.80692 18.1401C9.85675 18.5109 9.70388 18.88 9.40646 19.1069L10.6703 20.7631C11.5626 20.0822 12.0212 18.9751 11.8717 17.8627L9.80692 18.1401ZM8.32146 16.0801C8.87694 16.759 9.25379 17.2208 9.50688 17.585C9.76575 17.9575 9.80175 18.1016 9.80692 18.1401L11.8717 17.8627C11.7983 17.3162 11.5228 16.8351 11.2177 16.3961C10.9068 15.9487 10.4671 15.4125 9.93388 14.7608L8.32146 16.0801ZM7.15173 14.3045C7.25819 14.6379 7.42725 14.9202 7.61704 15.1866C7.80081 15.4446 8.04261 15.7393 8.32146 16.0801L9.93388 14.7608C9.63748 14.3986 9.44786 14.166 9.31381 13.9778C9.18579 13.7981 9.15067 13.7156 9.13636 13.6708L7.15173 14.3045ZM7.26108 12.1119C6.96067 12.8055 6.92181 13.5844 7.15173 14.3045L9.13633 13.6708C9.05971 13.4308 9.07267 13.1711 9.17279 12.9399L7.26108 12.1119ZM8.60163 10.4615C8.29027 10.7729 8.02036 11.042 7.81186 11.2804C7.5965 11.5266 7.40019 11.7907 7.26108 12.1119L9.17279 12.9399C9.1915 12.8967 9.23467 12.8181 9.37992 12.6521C9.532 12.4782 9.74383 12.2656 10.0748 11.9347L8.60163 10.4615ZM10.4627 8.60046L8.60163 10.4615L10.0748 11.9347L11.9359 10.0736L10.4627 8.60046ZM10.4627 8.60044V8.60046L11.9359 10.0736L10.4627 8.60044ZM12.1125 7.26029C11.7914 7.3994 11.5274 7.59565 11.2813 7.81094C11.043 8.01938 10.774 8.28919 10.4627 8.60044L11.9359 10.0736C12.2667 9.74277 12.4792 9.53102 12.653 9.37898C12.819 9.23377 12.8975 9.19061 12.9407 9.1719L12.1125 7.26029ZM14.3058 7.1509C13.5855 6.92081 12.8063 6.95969 12.1125 7.26029L12.9407 9.1719C13.172 9.07171 13.4318 9.05875 13.6718 9.13544L14.3058 7.1509ZM16.0809 8.32038C15.7401 8.04161 15.4455 7.79988 15.1877 7.61615C14.9214 7.4264 14.6391 7.25738 14.3058 7.1509L13.6718 9.13544C13.7166 9.14975 13.7991 9.18488 13.9788 9.31288C14.1669 9.4469 14.3995 9.63648 14.7616 9.93279L16.0809 8.32038ZM18.14 9.80529C18.1015 9.80011 17.9574 9.76408 17.5851 9.50531C17.2211 9.25231 16.7595 8.87561 16.0809 8.32038L14.7616 9.93279C15.413 10.4658 15.949 10.9052 16.3961 11.216C16.835 11.521 17.3158 11.7964 17.8619 11.87L18.14 9.80529ZM19.1073 9.40463C18.8802 9.70229 18.511 9.85525 18.14 9.80529L17.8619 11.87C18.9749 12.0199 20.0828 11.561 20.7639 10.668L19.1073 9.40463ZM19.5132 6.89906C19.426 7.77138 19.366 8.36404 19.2875 8.80025C19.2072 9.24642 19.1308 9.37371 19.1073 9.40463L20.7639 10.668C21.0979 10.2298 21.2433 9.69515 21.3379 9.16919C21.4344 8.63331 21.5025 7.94373 21.5863 7.10638L19.5132 6.89906ZM19.9412 4.81783C19.7809 5.12867 19.7009 5.44769 19.6468 5.77004C19.5944 6.08215 19.557 6.46123 19.5132 6.89906L21.5863 7.10638C21.6327 6.641 21.6631 6.34265 21.7015 6.11498C21.7379 5.89756 21.7713 5.81442 21.7929 5.77261L19.9412 4.81783ZM21.57 3.34377C20.8667 3.62181 20.2879 4.14554 19.9412 4.81781L21.7929 5.77261C21.9085 5.54852 22.1013 5.37394 22.3358 5.28125L21.57 3.34377ZM23.6835 3.125C23.2435 3.125 22.8625 3.12446 22.5469 3.14554C22.2206 3.16731 21.8952 3.21523 21.57 3.34377L22.3358 5.28125C22.3796 5.26396 22.4656 5.23894 22.6856 5.22425C22.916 5.20888 23.2158 5.20833 23.6835 5.20833V3.125ZM26.3162 3.125H23.6835V5.20833H26.3162V3.125ZM28.4302 3.3439C28.105 3.21527 27.7794 3.16736 27.4533 3.14556C27.1373 3.12446 26.7565 3.125 26.3162 3.125V5.20833C26.784 5.20833 27.084 5.20888 27.3144 5.22425C27.5344 5.23896 27.6204 5.264 27.6644 5.28129L28.4302 3.3439ZM30.0585 4.81754C29.7121 4.1455 29.1335 3.62192 28.4302 3.3439L27.6644 5.28129C27.8988 5.37398 28.0915 5.5485 28.2071 5.7725L30.0585 4.81754ZM32.2917 25C32.2917 29.0271 29.0271 32.2917 25 32.2917V34.375C30.1777 34.375 34.375 30.1777 34.375 25H32.2917ZM25 17.7083C29.0271 17.7083 32.2917 20.9729 32.2917 25H34.375C34.375 19.8223 30.1777 15.625 25 15.625V17.7083ZM17.7083 25C17.7083 20.9729 20.9729 17.7083 25 17.7083V15.625C19.8223 15.625 15.625 19.8223 15.625 25H17.7083ZM25 32.2917C20.9729 32.2917 17.7083 29.0271 17.7083 25H15.625C15.625 30.1777 19.8223 34.375 25 34.375V32.2917Z" fill="white"/>
</svg>
