<svg width="28" height="24" viewBox="0 0 28 24" fill="none" xmlns="http://www.w3.org/2000/svg">
<path d="M19.0507 15.7414C19.4601 15.3708 19.4916 14.7384 19.121 14.3289C18.7504 13.9195 18.118 13.888 17.7085 14.2586L19.0507 15.7414ZM13.9603 19L13.2893 19.7414C13.6702 20.0862 14.2505 20.0862 14.6314 19.7414L13.9603 19ZM10.2121 14.2586C9.80268 13.888 9.17029 13.9195 8.79968 14.3289C8.42906 14.7384 8.46055 15.3708 8.87001 15.7414L10.2121 14.2586ZM17.7085 14.2586L13.2893 18.2586L14.6314 19.7414L19.0507 15.7414L17.7085 14.2586ZM14.6314 18.2586L10.2121 14.2586L8.87001 15.7414L13.2893 19.7414L14.6314 18.2586Z" fill="white"/>
<path d="M8.87001 8.2586C8.46055 8.62922 8.42906 9.2616 8.79968 9.67106C9.17029 10.0805 9.80268 10.112 10.2121 9.7414L8.87001 8.2586ZM13.9603 5L14.6314 4.2586C14.2505 3.9138 13.6702 3.9138 13.2893 4.2586L13.9603 5ZM17.7085 9.7414C18.118 10.112 18.7504 10.0805 19.121 9.67106C19.4916 9.2616 19.4601 8.62922 19.0507 8.2586L17.7085 9.7414ZM10.2121 9.7414L14.6314 5.7414L13.2893 4.2586L8.87001 8.2586L10.2121 9.7414ZM13.2893 5.7414L17.7085 9.7414L19.0507 8.2586L14.6314 4.2586L13.2893 5.7414Z" fill="white"/>
</svg>
